<!DOCTYPE svg PUBLIC "-//W3C//DTD SVG 1.1//EN" "http://www.w3.org/Graphics/SVG/1.1/DTD/svg11.dtd">
<!-- Uploaded to: SVG Repo, www.svgrepo.com, Transformed by: SVG Repo Mixer Tools -->
<svg height="256px" width="256px" version="1.1" id="Layer_1" xmlns="http://www.w3.org/2000/svg" xmlns:xlink="http://www.w3.org/1999/xlink" viewBox="-91.2 -91.2 662.40 662.40" xml:space="preserve" fill="#000000" stroke="#000000" stroke-width="0.00480002" transform="rotate(0)">
<g id="SVGRepo_bgCarrier" stroke-width="0"/>
<g id="SVGRepo_tracerCarrier" stroke-linecap="round" stroke-linejoin="round" stroke="#CCCCCC" stroke-width="1.920008"/>
<g id="SVGRepo_iconCarrier"> <g transform="translate(0 -540.36)"> <g> <path style="fill:#e66565;" d="M0.002,780.361c0,132.548,107.452,240,240,240l0,0c132.548,0,240-107.452,240-240c0,0,0,0,0,0 c0-132.548-107.452-240-240-240h0C107.453,540.361,0.002,647.812,0.002,780.361C0.002,780.361,0.002,780.361,0.002,780.361z"/> <g> <circle style="fill:#e66565;" cx="239.996" cy="780.359" r="239.996"/> </g> </g> <g shape-rendering="auto" image-rendering="auto" color-rendering="auto" color-interpolation="sRGB"> <path style="fill:#E74C3C;" d="M341.748,563.285c-48.703,15.717-91.033,47.1-119.07,90.906 c-48.218,75.337-44.866,173.375,8.229,250.057l9.564-7.328c-50.421-72.82-53.406-164.797-7.977-235.777 c28.757-44.932,73.71-76.221,125.238-89.586C352.509,568.6,347.177,565.841,341.748,563.285z"/> <path style="fill:#F6851F;" d="M357.433,571.386c-51.614,13.512-96.799,44.863-125.908,90.125 c-46.204,71.842-42.995,165.332,7.883,238.457l9.166-6.988c-48.316-69.443-51.175-157.152-7.643-224.84 c29.614-46.047,77.15-77.068,131.17-87.996C367.317,577.052,362.425,574.13,357.433,571.386z"/> <path style="fill:#FCD116;" d="M372.23,580.236c-53.992,10.791-101.723,41.682-131.6,87.963 c-43.823,67.885-40.778,156.224,7.477,225.32l8.695-6.604c-45.825-65.617-48.538-148.494-7.25-212.453 c30.095-46.619,79.702-76.94,135.48-85.07C380.866,586.201,376.597,583.147,372.23,580.236z"/> <path style="fill:#8C5F96;" d="M415.773,617.386c-58.419,0.303-112.52,27.489-143.455,74.092 c-36.204,54.541-33.69,125.515,6.176,181.029l7.184-5.305c-37.858-52.719-40.1-119.306-5.99-170.693 c30.595-46.092,85.602-72.357,144.482-69.963C421.45,623.421,418.65,620.367,415.773,617.386z"/> <path style="fill:#57BB63;" d="M384.701,589.154c-55.494,8.179-105.059,38.408-135.326,85.254 c-41.613,64.406-38.72,148.219,7.102,213.775l8.256-6.266c-43.514-62.255-46.091-140.887-6.885-201.568 c30.301-46.899,81.434-76.413,138.297-81.875C392.426,595.251,388.61,592.142,384.701,589.154z"/> <path style="fill:#4086CD;" d="M396.433,598.728c-57.089,5.544-108.657,35.1-139.422,82.486 c-39.876,61.419-37.106,141.342,6.803,203.857l7.91-5.973c-41.698-59.367-44.165-134.352-6.596-192.219 c30.712-47.304,83.755-76.063,142.008-78.75C403.662,604.891,400.093,601.755,396.433,598.728z"/> <path style="fill:#356BA0;" d="M406.72,607.765c-57.816,2.78-110.705,31.288-141.549,78.617 c-37.82,58.035-35.192,133.558,6.453,192.629l7.504-5.646c-39.548-56.097-41.891-126.95-6.258-181.629 c30.524-46.84,84.307-74.439,142.662-74.607C412.679,613.929,409.741,610.807,406.72,607.765z"/> </g> <path style="fill:#3B3C3D;" d="M471.847,719.478c-8.216,21.046-14.282,56.722-16.148,99.725 c-7.21-6.677-15.141-10.171-23.184-10.213c-16.5,0.049-32.033,14.587-41.965,39.275c-8.861-11.692-19.431-17.977-30.268-17.996 c-14.922,0.042-29.134,11.945-39.104,32.752l-8.117-27.453l-11.805,40.969l-26.879-90.906l-31.785,110.314l-12.244-41.412 l-15.129,52.504l-35.908,5.139l-7.705-23.957l-8.32,25.211l-21.6-67.158l-18.266,55.344l-8.021-24.941l-5.516,16.713 c-6.774-12.667-16.432-19.914-26.572-19.939c-7.364,0.011-14.547,3.837-20.568,10.955c-6.75-15.03-17.305-23.88-28.518-23.908 c-5.464,0.025-10.853,2.151-15.752,6.215c-1.738-35.875-8.832-63.395-17.707-71.057c8.06,126.247,112.73,224.563,239.234,224.709 c132.548,0,240-107.452,240-240c0,0,0,0,0,0C479.902,759.801,477.162,739.339,471.847,719.478z"/> <path style="fill:#F29F4A;" d="M115.562,575.492c-17.169,10.331-32.976,22.772-47.053,37.031c0.119,2.44,0.481,4.862,1.082,7.23 c5.079,19.588,25.074,31.35,44.662,26.271c19.588-5.078,31.351-25.074,26.273-44.662c0,0,0,0,0,0 C137.299,588.968,127.833,579.159,115.562,575.492z"/> <g> <path style="fill:#3B3C3D;" d="M137.026,638.875c-3.28-11.14-17.084-19.692-33.482-20.742"/> <path style="fill:#3B3C3D;" d="M137.026,638.875c3.28-11.14,17.084-19.692,33.482-20.742"/> <path style="fill:#3B3C3D;" d="M164.245,645.642c-3.28-11.14-17.084-19.692-33.482-20.742"/> <path style="fill:#3B3C3D;" d="M164.245,645.642c3.28-11.14,17.084-19.692,33.482-20.742"/> </g> </g> </g>
</svg>